<?xml version="1.0" encoding="UTF-8"?>
<svg xmlns="http://www.w3.org/2000/svg" xmlns:xlink="http://www.w3.org/1999/xlink" width="480pt" height="480pt" viewBox="0 0 480 480" version="1.1">
<g id="surface1">
<path style=" stroke:none;fill-rule:nonzero;fill:#0288D1;fill-opacity:1;" d="M 420 370 C 420 397.621094 397.621094 420 370 420 L 110 420 C 82.390625 420 60 397.621094 60 370 L 60 110 C 60 82.378906 82.390625 60 110 60 L 370 60 C 397.621094 60 420 82.378906 420 110 Z "/>
<path style=" stroke:none;fill-rule:nonzero;fill:#FFFFFF;fill-opacity:1;" d="M 120 190 L 170 190 L 170 360 L 120 360 Z "/>
<path style=" stroke:none;fill-rule:nonzero;fill:#FFFFFF;fill-opacity:1;" d="M 144.851563 170 L 144.570313 170 C 129.648438 170 120 158.878906 120 144.988281 C 120 130.800781 129.949219 120 145.140625 120 C 160.351563 120 169.71875 130.800781 170 144.988281 C 170 158.871094 160.351563 170 144.851563 170 Z "/>
<path style=" stroke:none;fill-rule:nonzero;fill:#FFFFFF;fill-opacity:1;" d="M 360 360 L 310 360 L 310 269.011719 C 310 247.03125 297.75 232.03125 278.078125 232.03125 C 263.070313 232.03125 254.949219 242.148438 251.011719 251.929688 C 249.570313 255.429688 250 265.109375 250 270 L 250 360 L 200 360 L 200 190 L 250 190 L 250 216.160156 C 257.210938 205 268.5 190 297.378906 190 C 333.160156 190 359.988281 212.5 359.988281 262.738281 Z "/>
</g>
</svg>
